<svg xmlns="http://www.w3.org/2000/svg" viewBox="0 0 246.87 74.79"><defs><style>.cls-1{fill:#231f20;}.cls-2{fill:#f4b11c;}</style></defs><title>nps</title><g id="Layer_4" data-name="Layer 4"><path class="cls-1" d="M96.62,51.78V2.69h9.52l31.32,41.88V2.69h6.83V51.78H134.8L103.51,9.89V51.78Z"/><path class="cls-1" d="M155.8,51.78V2.69h22.94q9.28,0,13.78,3.57T197,17.19q0,7.33-4.49,10.9t-13.78,3.57H162.83V51.78Zm7-25.89h13.08c5.3,0,9-.64,11-1.93S190,20.49,190,17.39s-1-5.35-3-6.64-5.52-1.92-10.64-1.92H162.83Z"/><path class="cls-1" d="M202.66,35.18h7.43q.21,5.81,4.06,8.61T225.7,46.6q6.6,0,10.2-2.16a6.79,6.79,0,0,0,3.6-6.14,5.52,5.52,0,0,0-2-4.5q-2-1.61-6.58-2.4l-12.31-2.19q-7.5-1.3-10.95-4.43a11,11,0,0,1-3.45-8.55,12.66,12.66,0,0,1,5.45-11q5.46-3.87,15.54-3.87,9.53,0,14.64,4T245.09,17h-7A8.71,8.71,0,0,0,234.44,10q-3.25-2.23-9.74-2.24-6.33,0-9.67,2a6.37,6.37,0,0,0-3.35,5.79,5,5,0,0,0,1.9,4.23c1.26,1,3.57,1.8,6.91,2.44l10.93,2.12Q240,26,243.45,29t3.42,8.68A13.14,13.14,0,0,1,241.23,49q-5.62,4-15.93,4-11.1,0-16.8-4.5T202.66,35.18Z"/><path class="cls-1" d="M96.62,73.05V59.92h2.79l5.08,11.44,5.19-11.44h2.78V73.05h-1.83l.11-11.77-5.31,11.77h-1.89L98.32,61.28l.12,11.77Z"/><path class="cls-1" d="M113.86,73.05l6.23-13.13H122l5.85,13.13H126l-1.68-3.75h-6.7l-1.75,3.75Zm4.49-5.45h5.16L121,62Z"/><path class="cls-1" d="M129.42,73.05V59.92h2.51l8.27,11.2V59.92H142V73.05h-2.5l-8.26-11.21V73.05Z"/><path class="cls-1" d="M143.42,73.05l6.24-13.13h1.94l5.84,13.13h-1.93l-1.67-3.75h-6.7l-1.75,3.75Zm4.5-5.45h5.16L150.57,62Z"/><path class="cls-1" d="M169.23,64.06a3.44,3.44,0,0,0-1.53-2,5.61,5.61,0,0,0-2.94-.71,4.76,4.76,0,0,0-3.62,1.39,6,6,0,0,0,0,7.54,4.68,4.68,0,0,0,3.57,1.39A5.09,5.09,0,0,0,168,70.58a4,4,0,0,0,1.49-2.84h-4.17V66h5.89v7H170l-.19-2.21a4.84,4.84,0,0,1-2.06,1.9,6.61,6.61,0,0,1-3,.65,6.53,6.53,0,0,1-4.9-1.89,6.88,6.88,0,0,1-1.85-5,6.78,6.78,0,0,1,1.87-5.05,6.91,6.91,0,0,1,5.09-1.86,7,7,0,0,1,4.28,1.27,4.4,4.4,0,0,1,1.94,3.22Z"/><path class="cls-1" d="M174.32,73.05V59.92h10.44v1.67h-8.59v3.87h8.06V67.2h-8.06v4.08h8.71v1.77Z"/><path class="cls-1" d="M187.25,73.05V59.92H190l5.08,11.44,5.19-11.44h2.78V73.05h-1.83l.11-11.77-5.31,11.77h-1.89L189,61.28l.12,11.77Z"/><path class="cls-1" d="M206.1,73.05V59.92h10.44v1.67H208v3.87h8V67.2h-8v4.08h8.71v1.77Z"/><path class="cls-1" d="M219,73.05V59.92h2.51l8.27,11.2V59.92h1.8V73.05h-2.5l-8.26-11.21V73.05Z"/><path class="cls-1" d="M239.89,61.63V73.05H238V61.63h-5V59.92h11.84v1.71Z"/><polygon class="cls-2" points="65.18 16.33 39.37 32.27 28.91 25.81 0 43.67 0 44.16 0 74.79 77.95 74.79 77.95 44.16 77.95 24.22 65.18 16.33"/><path class="cls-1" d="M74.53,70.73H3.8V0H74.53ZM6.64,67.89h65v-65h-65Z"/></g></svg>